<?xml version="1.0" encoding="UTF-8"?>
<svg id="Ebene_1" data-name="Ebene 1" xmlns="http://www.w3.org/2000/svg" version="1.1" viewBox="0 0 169 172">
  <defs>
    <style>
      .cls-1 {
        fill: #1976d2;
        stroke-width: 0px;
      }
    </style>
  </defs>
  <g id="FDO_Logo" data-name="FDO Logo">
    <g>
      <path class="cls-1" d="M56.0192501,86.9711941c0-16.1425178,13.2075127-29.3500305,29.3500305-29.3500305,8.071264,0,15.4087665,2.935,20.5450254,8.8050051l10.2725178-10.2725127c-7.3375127-8.0712589-18.3437716-13.2075127-30.817533-13.2075127-24.2137767,0-44.0250457,19.811269-44.0250457,44.0250457,0,12.4737665,5.1362538,23.4800254,13.2075127,31.5512792l10.2725076-10.2725076c-5.1362538-5.87-8.8050051-13.2075076-8.8050152-21.2787665Z"/>
      <path class="cls-1" d="M95.6417881,76.6986865c-2.2012436-2.9350051-5.87-4.4025076-10.2725076-4.4025076-8.0712589,0-14.6750152,6.6037563-14.6750152,14.6750152,0,4.4025076,1.4675025,8.0712589,4.4025076,10.2725076l10.2725076-10.2725076,10.2725076-10.2725076Z"/>
      <path class="cls-1" d="M33.2729759,139.0675038l10.2725127-10.2725076c-10.2725127-11.0062589-16.876269-25.6812843-16.876269-41.8238021,0-32.2850356,26.4150254-58.7000609,58.7000609-58.7000609,16.1425178,0,30.8175432,6.6037563,41.8238021,16.876269l10.2725076-10.2725127c-13.2075229-13.2075133-31.5512843-21.2787709-52.0963097-21.2787709C45.0129861,13.5961185,11.9942043,46.6149022,11.9942043,86.9711941c0,20.5450254,8.0712589,38.8887868,21.2787716,52.0963097Z"/>
    </g>
    <path class="cls-1" d="M71.1245395,141.8207726l18.4481862,1.5513049-2.5787866,12.2283671c-.5701653,1.7221042-2.1562343,2.9608671-3.5686453,2.7871988l-9.180671-1.1287526c-1.8089282.1360249-3.3573742-1.8465512-3.1837211-3.2589622,0,0,.0636428-12.179156.0636377-12.179156Z"/>
    <path class="cls-1" d="M119.744003,132.1068015l12.5780845-13.5843333,8.04997,9.5593381c1.0062488,1.5093681,1.0062488,3.5218657,0,4.5281043l-6.5406019,6.5405917c-1.0062488,1.5093681-3.5218657,1.5093681-4.5281043.5031295,0,0-9.5593483-7.5468405-9.5593483-7.5468304Z"/>
    <path class="cls-1" d="M142.7870343,86.5680994l-3.3362634-18.2102036,12.4768441-.7150924c1.8113292.0990632,3.422365,1.3051781,3.6248153,2.7137535l1.3159828,9.1557093c.6052143,1.710099-.9024242,3.7238887-2.3109894,3.9263491,0,0-11.7703894,3.1294892-11.7703894,3.1294841Z"/>
    <circle class="cls-1" cx="85.3692805" cy="86.9711941" r="15.0172039"/>
    <path class="cls-1" d="M129.1380256,87.2240713c-.0000102,24.2261278-19.7567421,44.1615844-43.7666594,44.1615743-11.5248679,0-22.4053521-5.1574409-30.8196187-12.8631773l-11.0062589,10.2725178c11.0071542,11.1241133,26.445954,17.8431958,42.0247161,17.8432059,32.2019149.0000102,58.7000711-26.7372427,58.7000813-59.2297494.0000102-15.6890725-6.0902139-31.1599811-17.0772136-42.261048l-11.0062589,11.0062563c8.0724238,8.2577921,12.951212,19.4636882,12.951212,31.0704204Z"/>
  </g>
</svg>